<svg width="64" height="64" xmlns="http://www.w3.org/2000/svg" fill="#115fab">
 <title>boeingb</title>

 <g>
  <title>Layer 1</title>
  <ellipse fill="#0030a2" stroke="null" cx="32.01876" cy="31.98124" id="svg_10" rx="32.01876" ry="32.01876"/>
  <g id="svg_3" stroke-width="0" stroke="null">
   <path d="m22.80159,18.05972c-6.90118,0 -12.50813,5.5961 -12.50813,12.49728s5.5961,12.50813 12.50813,12.50813s12.50813,-5.5961 12.50813,-12.50813s-5.60695,-12.49728 -12.50813,-12.49728zm0,23.37949c-6.08245,-0.00678 -11.01584,-4.89065 -11.01584,-10.88221s4.93271,-10.88221 11.01584,-10.88221s11.01584,4.88387 11.01584,10.88221c0,6.01666 -4.93271,10.88221 -11.01584,10.88221z" id="svg_1" stroke="null" fill="#ffffff"/>
   <path d="m53.70224,39.4158l-21.72101,0.88384l-4.54471,-8.57119c8.36091,8.10587 26.56486,6.6909 26.2664,7.68667l-0.00068,0.00068zm-38.54255,7.18878c-1.54859,-1.37155 -0.47482,-5.87285 3.1406,-11.84474c7.53201,-12.45319 17.87225,-20.65944 17.87225,-20.65944c-7.91865,4.74821 -12.4308,9.4998 -16.26871,14.22223c-7.91797,9.73314 -10.50575,18.91211 -7.1664,21.24958c1.41564,0.99509 6.22693,-0.08818 10.06416,-5.90134c-2.1679,1.94676 -5.93865,4.42397 -7.6419,2.91947l0,0.01424z" id="svg_2" stroke="null" fill="#ffffff"/>
  </g>
 </g>
</svg>