<svg width="24" height="24" xmlns="http://www.w3.org/2000/svg" fill="none">
 <g>
  <title>Layer 1</title>
  <ellipse stroke="null" ry="11.93999" rx="11.93999" id="svg_3" cy="12.03277" cx="12.01411" fill="#e5461a"/>
  <path stroke="null" fill-rule="evenodd" clip-rule="evenodd" d="m5.53236,5.53236c-1.10968,1.10967 -1.10968,2.89566 -1.10968,6.46764c0,3.57195 0,5.358 1.10968,6.46762c1.10967,1.1097 2.89566,1.1097 6.46764,1.1097c3.57195,0 5.358,0 6.46762,-1.1097c1.1097,-1.10962 1.1097,-2.89567 1.1097,-6.46762c0,-3.57199 0,-5.35798 -1.1097,-6.46764c-1.10962,-1.10968 -2.89567,-1.10968 -6.46762,-1.10968c-3.57199,0 -5.35798,0 -6.46764,1.10968zm8.74084,6.46764c0.4185,0 0.75773,-0.50889 0.75773,-1.1366c0,-0.62773 -0.33924,-1.1366 -0.75773,-1.1366c-0.4185,0 -0.75773,0.50887 -0.75773,1.1366c0,0.62771 0.33924,1.1366 0.75773,1.1366zm-3.78866,-1.1366c0,0.62771 -0.33925,1.1366 -0.75773,1.1366c-0.41848,0 -0.75773,-0.50889 -0.75773,-1.1366c0,-0.62773 0.33925,-1.1366 0.75773,-1.1366c0.41848,0 0.75773,0.50887 0.75773,1.1366zm-1.21429,3.82912c0.1869,-0.25217 0.54282,-0.30506 0.79497,-0.11813c0.55192,0.40902 1.21805,0.64597 1.93479,0.64597c0.71674,0 1.38286,-0.23694 1.93479,-0.64597c0.25217,-0.18693 0.60808,-0.13404 0.79494,0.11813c0.18693,0.25217 0.13404,0.60808 -0.11813,0.79494c-0.73682,0.54617 -1.63791,0.8695 -2.6116,0.8695c-0.97369,0 -1.87478,-0.32332 -2.61161,-0.8695c-0.25215,-0.18686 -0.30504,-0.54276 -0.11815,-0.79494z" fill="#ffffff" id="svg_1"/>
 </g>

</svg>