<svg width="1024" height="1024" xmlns="http://www.w3.org/2000/svg" p-id="1696" version="1.1" class="icon" t="1696484881028">

 <g>
  <title>Layer 1</title>
  <rect id="svg_9" height="1227" width="1227" y="-7.5" x="-69.5" opacity="NaN" stroke="#000" fill="#7fffa7"/>
  <path id="svg_2" p-id="1698" fill="#B3FFC7" d="m593.92,219.0336l-229.0688,0a97.792,97.792 0 0 0 -97.792,97.792l0,373.76a97.792,97.792 0 0 0 97.792,97.8944l304.5376,0a97.792,97.792 0 0 0 97.792,-97.792l0,-327.8848l-173.2608,-143.7696z"/>
  <path id="svg_3" p-id="1699" fill="#CCFFDA" d="m593.92,219.0336l-227.328,0a98.8672,98.8672 0 0 0 -99.5328,98.0992l0,343.3472a364.6976,364.6976 0 0 0 85.0432,28.2112c181.4016,36.5056 358.7584,-68.096 415.0784,-237.4144l0,-88.4736l-173.2608,-143.7696z"/>
  <path id="svg_4" p-id="1700" fill="#D9FFE6" d="m593.92,219.0336l-227.328,0a98.8672,98.8672 0 0 0 -99.5328,98.0992l0,249.344c189.0816,23.3984 368.64,-84.224 436.5312,-256.3584l-109.6704,-91.0848z"/>
  <path id="svg_5" p-id="1701" fill="#E9FFF1" d="m593.92,219.0336l-227.328,0a98.8672,98.8672 0 0 0 -99.5328,98.0992l0,121.4976a411.7504,411.7504 0 0 0 339.3536,-209.1008l-12.4928,-10.496z"/>
  <path id="svg_6" p-id="1702" fill="#333333" d="m650.24,699.392l-265.3184,0a23.04,23.04 0 0 1 0,-46.08l265.3184,0a23.04,23.04 0 0 1 0,46.08zm0,-108.288l-265.3184,0a23.04,23.04 0 0 1 0,-46.08l265.3184,0a23.04,23.04 0 0 1 0,46.08z"/>
  <path id="svg_7" p-id="1703" fill="#333333" d="m764.4672,334.4384l-132.6592,-120.4224a78.3872,78.3872 0 0 0 -52.7872,-20.48l-231.4752,0a103.6288,103.6288 0 0 0 -103.5264,103.424l0,411.136a103.6288,103.6288 0 0 0 103.5264,103.5264l339.1488,0a103.6288,103.6288 0 0 0 103.5264,-103.5264l0,-315.4944a78.7968,78.7968 0 0 0 -25.7536,-58.1632zm-40.0896,25.856l-111.4112,0l0,-101.1712l111.4112,101.1712zm-37.6832,405.248l-339.1488,0a57.4976,57.4976 0 0 1 -57.4464,-57.4464l0,-411.136a57.4976,57.4976 0 0 1 57.4464,-57.2928l219.3408,0l0,132.1984a34.56,34.56 0 0 0 34.56,34.5088l142.6944,0l0,301.7216a57.4976,57.4976 0 0 1 -57.4464,57.4464z"/>
  <path id="svg_8" p-id="1704" fill="#333333" d="m497.92,377.856a69.4784,69.4784 0 1 0 -112.0256,0a98.56,98.56 0 0 0 -42.496,80.9472a23.04,23.04 0 1 0 46.08,0a52.4288,52.4288 0 0 1 104.8576,0a23.04,23.04 0 0 0 46.08,0a98.4064,98.4064 0 0 0 -42.496,-80.9472zm-79.4112,-40.96a23.4496,23.4496 0 1 1 23.3984,23.3984a23.4496,23.4496 0 0 1 -23.3984,-23.3984z"/>
 </g>
</svg>