<svg width="64" height="64" xmlns="http://www.w3.org/2000/svg" xmlns:xlink="http://www.w3.org/1999/xlink" xml:space="preserve" version="1.0">
 <g>
  <title>Layer 1</title>
  <defs transform="translate(-3.02005 2.34893)">
   <rect height="200" width="200" y="-25" x="14" id="SVGID_1_"/>
  </defs>
  <ellipse stroke="null" ry="31.87832" rx="31.87832" id="svg_47" cy="32" cx="32" fill="#022147"/>
  <clipPath transform="translate(-3.02005 2.34893)" id="SVGID_2_">
   <use x="1.79" y="-41.14941" id="svg_2" xlink:href="#SVGID_1_"/>
  </clipPath>
  <g id="svg_45">
   <path id="svg_3" fill="#ffffff" clip-path="url(#SVGID_2_)" d="m32,28.52059l1.62,11.76l5.33,-8.9l-2.26,9.79l5.75,-5.5l-2.99,7.26l4.78,-3.57c-2.23,6.06 -4.16,9.45 -12.22,12.21c-8.06,-2.76 -10,-6.15 -12.22,-12.21l4.78,3.57l-2.99,-7.26l5.75,5.5l-2.26,-9.79l5.33,8.9l1.6,-11.76z" class="st0"/>
   <path id="svg_4" fill="#ffffff" clip-path="url(#SVGID_2_)" d="m23.56,24.57059c-2.44,0 -3.9,-1.31 -3.9,-3.5l0,-5.26l2.02,0l0,5.17c0,1.28 0.67,1.98 1.89,1.98c1.25,0 1.91,-0.67 1.91,-1.94l0,-5.21l2.04,0l0,5.22c0,2.19 -1.52,3.54 -3.96,3.54" class="st0"/>
   <path id="svg_5" fill="#ffffff" clip-path="url(#SVGID_2_)" d="m32.07,24.43059l-2.83,0l0,-8.61l2.87,0c2.1,0 3.25,0.81 3.25,2.29c0,0.78 -0.41,1.37 -1.18,1.74c1.03,0.37 1.56,1.05 1.56,2.04c0.01,1.63 -1.29,2.54 -3.67,2.54m-0.87,-1.44l0.87,0c0.79,0 1.72,-0.2 1.72,-1.16c0,-0.99 -0.95,-1.2 -1.75,-1.2l-0.84,0l0,2.36zm0,-3.71l0.73,0c0.99,0 1.53,-0.37 1.53,-1.04c0,-0.66 -0.48,-0.98 -1.45,-0.98l-0.82,0l0,2.02l0.01,0z" class="st0"/>
   <path id="svg_6" fill="#ffffff" clip-path="url(#SVGID_2_)" d="m41.42,24.57059c-2.79,0 -4.59,-1.74 -4.59,-4.44c0,-2.67 1.87,-4.46 4.64,-4.46c1.03,0 1.9,0.2 2.65,0.62l0.07,0.04l-0.3,1.75l-0.13,-0.09c-0.74,-0.5 -1.44,-0.73 -2.21,-0.73c-1.66,0 -2.65,1.07 -2.65,2.86c0,1.75 1.02,2.84 2.67,2.84c0.78,0 1.55,-0.24 2.35,-0.72l0.13,-0.08l0.28,1.64l-0.06,0.04c-0.81,0.47 -1.83,0.73 -2.85,0.73" class="st0"/>
   <path id="svg_7" fill="#ffffff" clip-path="url(#SVGID_2_)" d="m32,53.39059c-9.51,-2.7 -14.06,-8.98 -14.06,-17.93l0,-21.2l28.11,0l0,21.2c0,8.96 -4.54,15.24 -14.05,17.93m-15.21,-40.28l0,22.49c0,9.45 5.14,16.3 15.21,18.98c10.06,-2.68 15.21,-9.53 15.21,-18.98l0,-22.49l-30.42,0z" class="st0"/>
   <path id="svg_8" fill="#ffffff" clip-path="url(#SVGID_2_)" d="m32,27.48059c2.12,0 2.41,0.86 4.11,0.85c1.7,0.01 1.99,-0.85 4.11,-0.85c2.12,0 2.41,0.86 4.12,0.85l0,-1.98c-1.7,0.01 -2,-0.84 -4.12,-0.84c-2.12,0 -2.41,0.85 -4.11,0.84c-1.71,0.01 -1.99,-0.84 -4.11,-0.84s-2.41,0.85 -4.11,0.84c-1.7,0.01 -1.99,-0.84 -4.11,-0.84c-2.12,0 -2.41,0.85 -4.11,0.84l0,1.98c1.7,0.01 1.99,-0.85 4.11,-0.85c2.12,0 2.41,0.86 4.11,0.85c1.7,0.01 1.99,-0.85 4.11,-0.85" class="st0"/>
   <path id="svg_9" fill="#ffffff" clip-path="url(#SVGID_2_)" d="m33.34,31.05059c1.02,0.25 1.51,0.71 2.77,0.71c1.7,0.01 1.99,-0.85 4.11,-0.85c2.12,0 2.41,0.86 4.11,0.85l0,-1.98c-1.7,0.01 -1.99,-0.84 -4.11,-0.84c-2.12,0 -2.41,0.85 -4.11,0.84c-1.37,0.01 -1.83,-0.54 -3.05,-0.75l0.28,2.02z" class="st0"/>
   <path id="svg_10" fill="#ffffff" clip-path="url(#SVGID_2_)" d="m27.88,31.75059c1.26,0.01 1.75,-0.46 2.77,-0.7l0.28,-2.02c-1.22,0.22 -1.68,0.76 -3.05,0.75c-1.7,0.01 -1.99,-0.84 -4.11,-0.84c-2.12,0 -2.41,0.85 -4.12,0.84l0,1.97c1.7,0.01 1.99,-0.85 4.12,-0.85c2.12,0 2.41,0.86 4.11,0.85" class="st0"/>
   <path id="svg_11" fill="#ffffff" clip-path="url(#SVGID_2_)" d="m33.83,34.61059c0.58,0.2 1.02,0.44 1.71,0.53l1.18,-1.98c-0.18,0.03 -0.39,0.04 -0.62,0.04c-1.17,0.01 -1.68,-0.39 -2.56,-0.64l0.29,2.05z" class="st0"/>
   <path id="svg_12" fill="#ffffff" clip-path="url(#SVGID_2_)" d="m39.26,34.40059c0.28,-0.04 0.59,-0.07 0.96,-0.07c2.12,0 2.41,0.86 4.12,0.85l0,-1.98c-1.7,0.01 -2,-0.84 -4.12,-0.84c-0.18,0 -0.34,0.01 -0.5,0.02l-0.46,2.02z" class="st0"/>
   <path id="svg_13" fill="#ffffff" clip-path="url(#SVGID_2_)" d="m24.73,34.40059l-0.47,-2.02c-0.16,-0.01 -0.32,-0.02 -0.5,-0.02c-2.12,0 -2.41,0.85 -4.12,0.84l0,1.98c1.7,0.01 2,-0.85 4.12,-0.85c0.38,-0.01 0.7,0.02 0.97,0.07" class="st0"/>
   <path id="svg_14" fill="#ffffff" clip-path="url(#SVGID_2_)" d="m28.45,35.14059c0.69,-0.09 1.13,-0.33 1.71,-0.53l0.28,-2.06c-0.89,0.25 -1.39,0.65 -2.56,0.64c-0.23,0 -0.43,-0.01 -0.62,-0.04l1.19,1.99z" class="st0"/>
  </g>
 </g>
</svg>