<svg width="950" height="950" xmlns="http://www.w3.org/2000/svg" clip-rule="evenodd" version="1.1">

 <g>
  <title>Layer 1</title>
  <ellipse stroke="#f29219" ry="474.71263" rx="474.71263" id="svg_8" cy="475" cx="474.99999" fill="#f29219"/>
  <g stroke="null" id="svg_3">
   <path stroke="null" id="svg_4" d="m698.08457,240.43369c0,158.04421 0,316.08842 0,474.13264c-75.18048,0 -150.36178,0 -225.54226,0c-43.06705,-0.24283 -83.67618,-10.25806 -121.82575,-30.04486c-39.46496,-23.01519 -66.21723,-56.35264 -80.25683,-100.01235c-7.13586,-21.95991 -11.5257,-44.45899 -13.17035,-67.49805c-1.20756,-92.18176 -1.61913,-184.37421 -1.23472,-276.57737c30.45644,0 60.91287,0 91.36931,0c-0.13747,85.88221 0,171.7636 0.41157,257.64499c0.98695,22.22497 5.65173,43.62679 13.9935,64.20546c13.88155,30.0819 37.34124,47.50463 70.37906,52.26983c11.20879,1.73355 22.45874,3.10491 33.74902,4.11573c46.91855,0.41157 93.83793,0.54904 140.75813,0.41157c0,-126.21559 0,-252.432 0,-378.64759c30.45644,0 60.91287,0 91.36931,0z" fill="#ffffff"/>
  </g>
 </g>
</svg>